<?xml version="1.0" encoding="UTF-8"?>
<svg viewBox="0 0 800 600" xmlns="http://www.w3.org/2000/svg">
  <!-- Background -->
  <rect width="800" height="600" fill="#f8fafc"/>
  
  <!-- School building -->
  <rect x="50" y="300" width="700" height="250" fill="#e2e8f0" stroke="#94a3b8" stroke-width="2"/>
  <rect x="100" y="340" width="80" height="120" fill="#3b82f6" stroke="#1e40af" stroke-width="2"/>
  <rect x="220" y="340" width="80" height="120" fill="#3b82f6" stroke="#1e40af" stroke-width="2"/>
  <rect x="340" y="340" width="80" height="120" fill="#3b82f6" stroke="#1e40af" stroke-width="2"/>
  <rect x="460" y="340" width="80" height="120" fill="#3b82f6" stroke="#1e40af" stroke-width="2"/>
  <rect x="580" y="340" width="80" height="120" fill="#3b82f6" stroke="#1e40af" stroke-width="2"/>
  
  <!-- Entrance -->
  <rect x="350" y="420" width="100" height="130" fill="#8b5cf6" stroke="#7c3aed" stroke-width="2"/>
  <text x="400" y="440" text-anchor="middle" fill="white" font-family="Arial" font-size="14" font-weight="bold">مدرسة</text>
  <text x="400" y="460" text-anchor="middle" fill="white" font-family="Arial" font-size="14" font-weight="bold">أنجال النخبة</text>
  
  <!-- Saudi flag -->
  <rect x="600" y="310" width="60" height="40" fill="#006c35"/>
  <text x="630" y="335" text-anchor="middle" fill="white" font-family="Arial" font-size="12" font-weight="bold">🇸🇦</text>
  
  <!-- School children - Saudi girls in school uniform -->
  
  <!-- Girl 1 -->
  <g transform="translate(200, 480)">
    <!-- Body -->
    <rect x="0" y="20" width="30" height="40" fill="#1e40af" rx="5"/>
    <!-- Head -->
    <circle cx="15" cy="10" r="12" fill="#d4a574"/>
    <!-- Hijab -->
    <path d="M 3 5 Q 15 -2 27 5 L 27 18 Q 15 15 3 18 Z" fill="#e11d48"/>
    <!-- Eyes -->
    <circle cx="10" cy="8" r="1.5" fill="#000"/>
    <circle cx="20" cy="8" r="1.5" fill="#000"/>
    <!-- Smile -->
    <path d="M 10 12 Q 15 16 20 12" stroke="#000" stroke-width="1" fill="none"/>
    <!-- Arms -->
    <rect x="-5" y="25" width="8" height="20" fill="#d4a574" rx="4"/>
    <rect x="27" y="25" width="8" height="20" fill="#d4a574" rx="4"/>
    <!-- Legs -->
    <rect x="5" y="60" width="8" height="25" fill="#1e40af"/>
    <rect x="17" y="60" width="8" height="25" fill="#1e40af"/>
    <!-- Shoes -->
    <ellipse cx="9" cy="88" rx="6" ry="3" fill="#000"/>
    <ellipse cx="21" cy="88" rx="6" ry="3" fill="#000"/>
    <!-- Backpack -->
    <rect x="32" y="15" width="12" height="18" fill="#dc2626" rx="2"/>
  </g>
  
  <!-- Girl 2 -->
  <g transform="translate(300, 480)">
    <!-- Body -->
    <rect x="0" y="20" width="30" height="40" fill="#1e40af" rx="5"/>
    <!-- Head -->
    <circle cx="15" cy="10" r="12" fill="#d4a574"/>
    <!-- Hijab -->
    <path d="M 3 5 Q 15 -2 27 5 L 27 18 Q 15 15 3 18 Z" fill="#059669"/>
    <!-- Eyes -->
    <circle cx="10" cy="8" r="1.5" fill="#000"/>
    <circle cx="20" cy="8" r="1.5" fill="#000"/>
    <!-- Smile -->
    <path d="M 10 12 Q 15 16 20 12" stroke="#000" stroke-width="1" fill="none"/>
    <!-- Arms -->
    <rect x="-5" y="25" width="8" height="20" fill="#d4a574" rx="4"/>
    <rect x="27" y="25" width="8" height="20" fill="#d4a574" rx="4"/>
    <!-- Legs -->
    <rect x="5" y="60" width="8" height="25" fill="#1e40af"/>
    <rect x="17" y="60" width="8" height="25" fill="#1e40af"/>
    <!-- Shoes -->
    <ellipse cx="9" cy="88" rx="6" ry="3" fill="#000"/>
    <ellipse cx="21" cy="88" rx="6" ry="3" fill="#000"/>
    <!-- Book -->
    <rect x="32" y="25" width="8" height="12" fill="#f59e0b" rx="1"/>
  </g>
  
  <!-- Girl 3 -->
  <g transform="translate(400, 480)">
    <!-- Body -->
    <rect x="0" y="20" width="30" height="40" fill="#1e40af" rx="5"/>
    <!-- Head -->
    <circle cx="15" cy="10" r="12" fill="#d4a574"/>
    <!-- Hijab -->
    <path d="M 3 5 Q 15 -2 27 5 L 27 18 Q 15 15 3 18 Z" fill="#7c3aed"/>
    <!-- Eyes -->
    <circle cx="10" cy="8" r="1.5" fill="#000"/>
    <circle cx="20" cy="8" r="1.5" fill="#000"/>
    <!-- Smile -->
    <path d="M 10 12 Q 15 16 20 12" stroke="#000" stroke-width="1" fill="none"/>
    <!-- Arms -->
    <rect x="-5" y="25" width="8" height="20" fill="#d4a574" rx="4"/>
    <rect x="27" y="25" width="8" height="20" fill="#d4a574" rx="4"/>
    <!-- Legs -->
    <rect x="5" y="60" width="8" height="25" fill="#1e40af"/>
    <rect x="17" y="60" width="8" height="25" fill="#1e40af"/>
    <!-- Shoes -->
    <ellipse cx="9" cy="88" rx="6" ry="3" fill="#000"/>
    <ellipse cx="21" cy="88" rx="6" ry="3" fill="#000"/>
    <!-- Backpack -->
    <rect x="32" y="15" width="12" height="18" fill="#10b981" rx="2"/>
  </g>
  
  <!-- Teacher - Saudi woman with hijab -->
  <g transform="translate(500, 470)">
    <!-- Body -->
    <rect x="0" y="30" width="35" height="50" fill="#1f2937" rx="5"/>
    <!-- Head -->
    <circle cx="17.5" cy="15" r="15" fill="#d4a574"/>
    <!-- Hijab -->
    <path d="M 2 8 Q 17.5 -5 33 8 L 33 25 Q 17.5 20 2 25 Z" fill="#1f2937"/>
    <!-- Eyes -->
    <circle cx="12" cy="12" r="1.5" fill="#000"/>
    <circle cx="23" cy="12" r="1.5" fill="#000"/>
    <!-- Smile -->
    <path d="M 12 18 Q 17.5 22 23 18" stroke="#000" stroke-width="1" fill="none"/>
    <!-- Arms -->
    <rect x="-8" y="35" width="10" height="25" fill="#d4a574" rx="5"/>
    <rect x="33" y="35" width="10" height="25" fill="#d4a574" rx="5"/>
    <!-- Legs -->
    <rect x="8" y="80" width="8" height="25" fill="#1f2937"/>
    <rect x="19" y="80" width="8" height="25" fill="#1f2937"/>
    <!-- Shoes -->
    <ellipse cx="12" cy="108" rx="6" ry="3" fill="#000"/>
    <ellipse cx="23" cy="108" rx="6" ry="3" fill="#000"/>
    <!-- Books -->
    <rect x="45" y="35" width="6" height="10" fill="#ef4444" rx="1"/>
    <rect x="45" y="47" width="6" height="10" fill="#3b82f6" rx="1"/>
  </g>
  
  <!-- Decorative elements -->
  <circle cx="100" cy="100" r="25" fill="#fbbf24" opacity="0.8"/>
  <text x="100" y="105" text-anchor="middle" fill="white" font-family="Arial" font-size="16">☀️</text>
  
  <!-- Clouds -->
  <ellipse cx="600" cy="80" rx="30" ry="15" fill="white" opacity="0.8"/>
  <ellipse cx="620" cy="80" rx="25" ry="12" fill="white" opacity="0.8"/>
  <ellipse cx="640" cy="80" rx="20" ry="10" fill="white" opacity="0.8"/>
  
  <!-- Palm trees -->
  <rect x="80" y="450" width="8" height="100" fill="#92400e"/>
  <ellipse cx="84" cy="440" rx="15" ry="8" fill="#059669"/>
  <ellipse cx="84" cy="430" rx="12" ry="6" fill="#059669"/>
  <ellipse cx="84" cy="420" rx="10" ry="5" fill="#059669"/>
  
  <rect x="680" y="450" width="8" height="100" fill="#92400e"/>
  <ellipse cx="684" cy="440" rx="15" ry="8" fill="#059669"/>
  <ellipse cx="684" cy="430" rx="12" ry="6" fill="#059669"/>
  <ellipse cx="684" cy="420" rx="10" ry="5" fill="#059669"/>
  
  <!-- Arabic text -->
  <text x="400" y="570" text-anchor="middle" fill="#1f2937" font-family="Arial" font-size="20" font-weight="bold">مدارس أنجال النخبة الأهلية</text>
  <text x="400" y="590" text-anchor="middle" fill="#64748b" font-family="Arial" font-size="14">تعليم متميز وبيئة آمنة</text>
</svg>